<?xml version="1.0" encoding="UTF-8"?>
<!DOCTYPE svg PUBLIC "-//W3C//DTD SVG 1.1//EN" "http://www.w3.org/Graphics/SVG/1.1/DTD/svg11.dtd">
<!-- Creator: CorelDRAW -->
<svg xmlns="http://www.w3.org/2000/svg" xml:space="preserve" width="2048px" height="2048px" style="shape-rendering:geometricPrecision; text-rendering:geometricPrecision; image-rendering:optimizeQuality; fill-rule:evenodd; clip-rule:evenodd"
viewBox="0 0 2048 2048"
 xmlns:xlink="http://www.w3.org/1999/xlink">
 <defs>
  <style type="text/css">
   <![CDATA[
    .fil2 {fill:none}
    .fil1 {fill:#26C6DA}
    .fil0 {fill:#80DEEA}
    .fil6 {fill:#BF360C}
    .fil3 {fill:#F4511E}
    .fil7 {fill:#37474F;fill-rule:nonzero}
    .fil8 {fill:#455A64;fill-rule:nonzero}
    .fil4 {fill:#B71C1C;fill-rule:nonzero}
    .fil5 {fill:#D50000;fill-rule:nonzero}
   ]]>
  </style>
   <clipPath id="id0">
    <path d="M1024 0c565.538,0 1024,458.462 1024,1024 0,565.538 -458.462,1024 -1024,1024 -565.538,0 -1024,-458.462 -1024,-1024 0,-565.538 458.462,-1024 1024,-1024z"/>
   </clipPath>
 </defs>
 <g id="Layer_x0020_1">
  <metadata id="CorelCorpID_0Corel-Layer"/>
  <path class="fil0" d="M1024 0c565.538,0 1024,458.462 1024,1024 0,565.538 -458.462,1024 -1024,1024 -565.538,0 -1024,-458.462 -1024,-1024 0,-565.538 458.462,-1024 1024,-1024z"/>
  <g style="clip-path:url(#id0)">
   <g id="_385690048">
    <g>
     <path id="_3856790561" class="fil1" d="M1916.31 1933.58l0 0zm-1135.88 -1135.88l0 0z"/>
     <path id="_385679608" class="fil1" d="M1914.85 1934.1l0 0zm-1135.88 -1135.88l0 0z"/>
     <path id="_385681216" class="fil1" d="M1914.35 1934.26l0 0zm-1135.88 -1135.88l0 0z"/>
     <path id="_385681312" class="fil1" d="M1613.57 1949.12l0 0zm-1135.88 -1135.88l0 0z"/>
     <polygon id="_385680856" class="fil1" points="1492.4,547.817 2628.28,1683.7 2629.18,1684.86 2630,1686.08 2630.75,1687.37 2631.42,1688.73 2632.01,1690.14 1496.13,554.259 1495.54,552.844 1494.87,551.49 1494.12,550.2 1493.3,548.976 "/>
     <polygon id="_385682080" class="fil1" points="1496.13,554.259 2632.01,1690.14 2631.95,1690.22 1496.07,554.339 "/>
     <polygon id="_385681936" class="fil1" points="1496.07,554.339 2631.95,1690.22 2690.82,1847.19 1554.94,711.306 "/>
     <polygon id="_385681624" class="fil1" points="1556.09,711.35 2691.97,1847.23 2692.13,1847.67 2692.45,1848.49 2692.9,1849.66 2693.45,1851.13 2694.09,1852.85 2694.8,1854.77 2695.56,1856.85 2696.35,1859.04 2697.15,1861.31 2697.94,1863.58 2698.69,1865.84 2699.39,1868.02 2700.03,1870.08 2700.57,1871.98 2700.99,1873.67 2701.29,1875.1 1565.41,739.217 1565.11,737.787 1564.68,736.099 1564.14,734.201 1563.51,732.139 1562.81,729.957 1562.05,727.703 1561.27,725.423 1560.47,723.162 1559.68,720.969 1558.92,718.888 1558.21,716.965 1557.57,715.248 1557.01,713.781 1556.57,712.612 1556.25,711.786 "/>
     <polygon id="_385681672" class="fil1" points="1565.41,739.217 2701.29,1875.1 2717.67,1918.78 1581.79,782.897 "/>
     <polygon id="_385682176" class="fil1" points="1581.79,782.897 2717.67,1918.78 2718.03,1919.56 2718.36,1920.36 2718.66,1921.18 2718.93,1922.01 2719.16,1922.86 2719.37,1923.72 2719.54,1924.6 2719.68,1925.49 1583.8,789.607 1583.66,788.716 1583.49,787.84 1583.28,786.977 1583.05,786.129 1582.78,785.297 1582.48,784.479 1582.15,783.68 "/>
     <polygon id="_385681720" class="fil1" points="1583.8,789.607 2719.68,1925.49 2719.86,1927.63 2719.85,1929.73 2719.64,1931.8 2719.24,1933.82 2718.66,1935.77 2717.92,1937.66 2717.01,1939.46 2715.95,1941.16 2714.74,1942.77 2713.39,1944.26 2711.9,1945.63 2710.3,1946.86 2708.58,1947.95 2706.75,1948.88 2704.83,1949.65 2702.81,1950.25 1566.93,814.365 1568.94,813.771 1570.87,813.002 1572.7,812.068 1574.42,810.977 1576.02,809.744 1577.5,808.377 1578.85,806.885 1580.06,805.281 1581.13,803.573 1582.04,801.773 1582.78,799.89 1583.36,797.936 1583.76,795.92 1583.97,793.853 1583.98,791.744 "/>
     <polygon id="_385683016" class="fil1" points="1567.07,814.404 2702.95,1950.29 2702.69,1950.35 2702.24,1950.45 2701.66,1950.57 2701.02,1950.7 2700.39,1950.82 2699.85,1950.91 2699.46,1950.95 2699.29,1950.93 1563.41,815.044 1563.58,815.068 1563.96,815.026 1564.51,814.939 1565.14,814.821 1565.78,814.692 1566.36,814.567 1566.81,814.465 "/>
     <polygon id="_385683136" class="fil1" points="1563.41,815.044 2699.29,1950.93 2691.78,1951.74 1555.9,815.861 "/>
     <polygon id="_385682656" class="fil1" points="1555.9,815.861 2691.78,1951.74 2689.6,1952.01 2687.42,1952.27 2685.24,1952.52 2683.05,1952.77 2680.87,1953 2678.68,1953.24 2676.5,1953.46 2674.32,1953.68 2672.13,1953.9 2669.95,1954.1 2667.76,1954.3 2665.58,1954.5 2663.39,1954.69 2661.2,1954.87 2659.02,1955.04 2656.83,1955.21 2654.64,1955.37 2652.46,1955.53 2650.27,1955.68 2648.08,1955.82 2645.89,1955.96 2643.7,1956.09 2641.52,1956.21 2639.33,1956.33 2637.14,1956.44 2634.95,1956.54 2632.76,1956.64 2630.57,1956.74 2628.38,1956.82 2626.19,1956.9 2624,1956.97 2621.81,1957.04 1485.93,821.16 1488.12,821.092 1490.31,821.019 1492.5,820.939 1494.69,820.854 1496.88,820.762 1499.07,820.662 1501.26,820.557 1503.45,820.446 1505.64,820.328 1507.82,820.204 1510.01,820.074 1512.2,819.937 1514.39,819.794 1516.58,819.646 1518.76,819.49 1520.95,819.328 1523.14,819.159 1525.32,818.984 1527.51,818.803 1529.69,818.616 1531.88,818.421 1534.06,818.221 1536.25,818.014 1538.43,817.801 1540.62,817.581 1542.8,817.354 1544.99,817.121 1547.17,816.883 1549.35,816.637 1551.54,816.384 1553.72,816.126 "/>
     <polygon id="_385682776" class="fil1" points="1485.93,821.16 2621.81,1957.04 2620.26,1957.1 2618.7,1957.15 2617.15,1957.19 2615.59,1957.24 2614.04,1957.28 2612.49,1957.31 2610.93,1957.34 2609.38,1957.37 2607.82,1957.4 2606.27,1957.42 2604.71,1957.44 2603.16,1957.45 2601.6,1957.46 2600.04,1957.47 2598.49,1957.47 2596.93,1957.47 2595.37,1957.47 2593.81,1957.46 2592.25,1957.44 2590.69,1957.43 2589.12,1957.4 2587.56,1957.38 2586,1957.35 2584.43,1957.31 2582.87,1957.28 2581.3,1957.23 2579.73,1957.19 2578.16,1957.14 2576.59,1957.08 2575.02,1957.02 2573.45,1956.96 2571.88,1956.89 1435.99,821.006 1437.57,821.075 1439.14,821.14 1440.71,821.199 1442.28,821.254 1443.85,821.306 1445.42,821.352 1446.99,821.395 1448.55,821.433 1450.12,821.467 1451.68,821.496 1453.24,821.522 1454.81,821.544 1456.37,821.561 1457.93,821.574 1459.49,821.584 1461.05,821.588 1462.6,821.59 1464.16,821.587 1465.72,821.581 1467.28,821.571 1468.83,821.557 1470.39,821.539 1471.94,821.516 1473.5,821.492 1475.05,821.462 1476.61,821.43 1478.16,821.394 1479.71,821.353 1481.27,821.311 1482.82,821.264 1484.37,821.213 "/>
     <polygon id="_385682488" class="fil1" points="1435.99,821.006 2571.88,1956.89 2570.77,1956.85 2569.66,1956.81 2568.55,1956.77 2567.44,1956.72 2566.33,1956.68 2565.22,1956.63 2564.11,1956.58 2563,1956.53 2561.89,1956.48 2560.78,1956.42 2559.67,1956.37 2558.56,1956.31 2557.45,1956.25 2556.34,1956.19 2555.22,1956.13 2554.11,1956.07 1418.23,820.186 1419.34,820.249 1420.45,820.31 1421.56,820.371 1422.67,820.429 1423.78,820.485 1424.89,820.541 1426.01,820.594 1427.12,820.646 1428.23,820.697 1429.34,820.745 1430.45,820.794 1431.56,820.838 1432.67,820.883 1433.78,820.926 1434.88,820.967 "/>
     <polygon id="_385682392" class="fil1" points="1247.69,693.218 2383.57,1829.1 2382.22,1827.65 2380.73,1826.25 2379.11,1824.88 2377.35,1823.56 2375.44,1822.27 2373.38,1821.02 2371.16,1819.79 2368.78,1818.6 2366.22,1817.43 2363.5,1816.29 2360.59,1815.17 2357.5,1814.07 2354.22,1812.98 2350.74,1811.91 2347.06,1810.84 2343.17,1809.79 2339.08,1808.74 2334.76,1807.7 2330.22,1806.66 2325.45,1805.61 2320.45,1804.56 2315.21,1803.5 2309.73,1802.44 2303.99,1801.36 2298,1800.27 2291.75,1799.16 2285.24,1798.03 1149.36,662.15 1155.87,663.278 1162.12,664.387 1168.11,665.48 1173.85,666.557 1179.33,667.622 1184.57,668.678 1189.57,669.728 1194.34,670.773 1198.88,671.816 1203.19,672.86 1207.29,673.908 1211.18,674.962 1214.86,676.025 1218.34,677.097 1221.62,678.184 1224.71,679.287 1227.62,680.409 1230.34,681.552 1232.9,682.719 1235.28,683.912 1237.5,685.134 1239.56,686.388 1241.47,687.676 1243.23,689 1244.85,690.363 1246.34,691.769 "/>
     <polygon id="_385683856" class="fil1" points="1149.36,662.15 2285.24,1798.03 2281.47,1797.4 2277.68,1796.78 2273.89,1796.19 2270.08,1795.62 2266.26,1795.06 2262.42,1794.53 2258.58,1794.02 2254.72,1793.52 2250.85,1793.05 2246.98,1792.6 2243.09,1792.16 2239.19,1791.75 2235.29,1791.36 2231.37,1790.98 2227.45,1790.63 2223.52,1790.3 2219.58,1789.99 2215.63,1789.7 2211.68,1789.42 2207.72,1789.17 2203.76,1788.94 2199.79,1788.73 2195.81,1788.54 2191.83,1788.37 2187.85,1788.22 2183.86,1788.09 2179.87,1787.98 2175.88,1787.88 2171.88,1787.81 2167.88,1787.76 2163.89,1787.73 2159.88,1787.72 1024,651.841 1028,651.851 1032,651.882 1036,651.931 1040,652.002 1043.99,652.093 1047.98,652.203 1051.97,652.334 1055.95,652.485 1059.93,652.656 1063.91,652.848 1067.88,653.059 1071.84,653.291 1075.8,653.542 1079.75,653.814 1083.7,654.106 1087.64,654.417 1091.57,654.751 1095.49,655.102 1099.41,655.476 1103.31,655.868 1107.21,656.28 1111.1,656.713 1114.97,657.167 1118.84,657.639 1122.7,658.133 1126.54,658.647 1130.38,659.18 1134.2,659.734 1138.01,660.308 1141.8,660.902 1145.59,661.516 "/>
     <polygon id="_385683904" class="fil1" points="1253.89,701.267 2389.77,1837.15 2388.56,1837.1 1252.68,701.22 "/>
     <polygon id="_385683568" class="fil1" points="1418.23,820.186 2554.11,1956.07 2549.56,1955.79 2545.02,1955.5 2540.47,1955.17 2535.92,1954.82 2531.36,1954.44 2526.81,1954.04 2522.26,1953.62 2517.7,1953.16 2513.15,1952.69 2508.59,1952.18 2504.04,1951.66 2499.48,1951.1 2494.92,1950.52 2490.36,1949.92 2485.8,1949.3 2481.24,1948.64 2476.68,1947.97 2472.12,1947.26 2467.56,1946.54 2462.99,1945.79 2458.43,1945.01 2453.86,1944.21 2449.3,1943.39 2444.73,1942.54 2440.16,1941.66 2435.59,1940.77 2431.02,1939.85 2426.45,1938.9 2421.88,1937.93 2417.31,1936.94 2412.73,1935.92 2408.16,1934.88 1272.28,798.996 1276.85,800.037 1281.43,801.055 1286,802.048 1290.57,803.018 1295.14,803.963 1299.71,804.884 1304.28,805.782 1308.85,806.655 1313.41,807.504 1317.98,808.328 1322.55,809.128 1327.11,809.904 1331.67,810.655 1336.24,811.381 1340.8,812.083 1345.36,812.76 1349.92,813.413 1354.48,814.04 1359.04,814.642 1363.6,815.221 1368.16,815.774 1372.71,816.301 1377.27,816.804 1381.82,817.281 1386.38,817.733 1390.93,818.16 1395.48,818.561 1400.03,818.938 1404.59,819.289 1409.14,819.614 1413.68,819.912 "/>
     <polygon id="_385683232" class="fil1" points="1272.28,798.996 2408.16,1934.88 2406.11,1934.45 2404.14,1933.84 2402.25,1933.06 2400.46,1932.12 2398.77,1931.03 2397.19,1929.79 2395.72,1928.42 1259.84,792.54 1261.3,793.909 1262.89,795.145 1264.58,796.237 1266.37,797.179 1268.26,797.959 1270.23,798.568 "/>
     <polygon id="_385683616" class="fil1" points="1024,651.841 2159.88,1787.72 2155.88,1787.73 2151.88,1787.76 2147.88,1787.81 2143.89,1787.88 2139.89,1787.98 2135.9,1788.09 2131.92,1788.22 2127.93,1788.37 2123.95,1788.54 2119.98,1788.73 2116.01,1788.94 2112.05,1789.17 2108.09,1789.42 2104.13,1789.7 2100.19,1789.99 2096.25,1790.3 2092.32,1790.63 2088.4,1790.98 2084.48,1791.36 2080.57,1791.75 2076.68,1792.16 2072.79,1792.6 2068.91,1793.05 2065.05,1793.52 2061.19,1794.02 2057.34,1794.53 2053.51,1795.06 2049.69,1795.62 2045.88,1796.19 2042.08,1796.78 2038.3,1797.4 2034.53,1798.03 898.65,662.15 902.418,661.516 906.201,660.902 909.999,660.308 913.808,659.734 917.629,659.18 921.463,658.647 925.308,658.133 929.164,657.639 933.031,657.167 936.909,656.713 940.797,656.28 944.694,655.868 948.6,655.476 952.515,655.102 956.439,654.751 960.369,654.417 964.308,654.106 968.253,653.814 972.206,653.542 976.164,653.291 980.129,653.059 984.099,652.848 988.073,652.656 992.052,652.485 996.036,652.334 1000.02,652.203 1004.01,652.093 1008.01,652.002 1012,651.931 1016,651.882 1020,651.851 "/>
     <polygon id="_385683784" class="fil1" points="898.65,662.15 2034.53,1798.03 2028.33,1799.1 2022.37,1800.16 2016.65,1801.2 2011.16,1802.23 2005.89,1803.24 2000.85,1804.25 1996.03,1805.25 1991.41,1806.24 1987.01,1807.23 1982.81,1808.22 1978.81,1809.22 1975,1810.21 1971.38,1811.22 1967.95,1812.23 1964.7,1813.25 1961.62,1814.29 1958.72,1815.34 1955.98,1816.41 1953.4,1817.5 1950.98,1818.61 1948.71,1819.74 1946.59,1820.9 1944.61,1822.09 1942.77,1823.31 1941.07,1824.56 1939.49,1825.84 1938.04,1827.16 1936.71,1828.53 1935.5,1829.93 1934.39,1831.38 1933.39,1832.87 1932.5,1834.41 796.616,698.527 797.513,696.987 798.512,695.494 799.616,694.047 800.832,692.644 802.163,691.282 803.613,689.959 805.189,688.674 806.893,687.423 808.731,686.204 810.708,685.017 812.828,683.858 815.097,682.725 817.517,681.615 820.094,680.527 822.834,679.458 825.74,678.407 828.817,677.371 832.07,676.348 835.503,675.336 839.121,674.332 842.927,673.334 846.929,672.341 851.13,671.349 855.533,670.358 860.146,669.363 864.972,668.364 870.014,667.359 875.278,666.343 880.769,665.318 886.491,664.278 892.45,663.223 "/>
     <polygon id="_385683976" class="fil1" points="796.616,698.527 1932.5,1834.41 1928.32,1861.94 792.441,726.058 "/>
     <polygon id="_385684552" class="fil1" points="792.441,726.058 1928.32,1861.94 1927.99,1861.95 792.108,726.071 "/>
     <polygon id="_385684072" class="fil1" points="792.108,726.071 1927.99,1861.95 1928.01,1862.87 1928.03,1863.8 1928.06,1864.75 1928.1,1865.7 1928.13,1866.66 1928.17,1867.64 1928.21,1868.63 1928.26,1869.63 1928.3,1870.64 1928.35,1871.66 1928.41,1872.7 1928.46,1873.75 1928.52,1874.81 1928.57,1875.88 1928.63,1876.96 1928.69,1878.06 792.808,742.18 792.749,741.082 792.692,739.997 792.635,738.923 792.579,737.864 792.525,736.815 792.473,735.779 792.423,734.756 792.376,733.744 792.331,732.745 792.289,731.757 792.25,730.78 792.214,729.817 792.182,728.864 792.153,727.921 792.128,726.99 "/>
     <polygon id="_385684168" class="fil1" points="792.808,742.18 1928.69,1878.06 1928.77,1879.48 1928.84,1880.92 1928.92,1882.41 1929,1883.95 1929.09,1885.57 1929.17,1887.27 1929.26,1889.06 1929.35,1890.97 793.47,755.088 793.378,753.181 793.289,751.385 793.204,749.686 793.121,748.072 793.04,746.527 792.962,745.039 792.884,743.594 "/>
     <polygon id="_385684624" class="fil1" points="793.47,755.088 1929.35,1890.97 1930.26,1910.02 794.379,774.142 "/>
     <polygon id="_385684456" class="fil1" points="794.379,774.142 1930.26,1910.02 1930.41,1911.92 1930.41,1913.8 1930.25,1915.65 1929.93,1917.47 1929.47,1919.24 1928.88,1920.96 1928.14,1922.62 1927.28,1924.22 1926.29,1925.74 1925.18,1927.17 1923.96,1928.52 1922.62,1929.76 1921.19,1930.9 1919.65,1931.92 1918.03,1932.82 1916.31,1933.58 780.427,797.701 782.144,796.934 783.773,796.036 785.308,795.015 786.744,793.879 788.076,792.634 789.298,791.29 790.407,789.855 791.396,788.336 792.259,786.741 792.994,785.079 793.593,783.358 794.051,781.586 794.364,779.77 794.527,777.918 794.533,776.04 "/>
     <polygon id="_385684792" class="fil1" points="780.427,797.701 1916.31,1933.58 1915.88,1933.75 779.999,797.865 "/>
     <polygon id="_385685368" class="fil1" points="779.999,797.865 1915.88,1933.75 1915.87,1933.75 779.985,797.87 "/>
     <polygon id="_385684864" class="fil1" points="779.985,797.87 1915.87,1933.75 1915.45,1933.9 779.568,798.021 "/>
     <polygon id="_385684768" class="fil1" points="779.568,798.021 1915.45,1933.9 1915.4,1933.92 779.514,798.04 "/>
     <polygon id="_385684936" class="fil1" points="779.514,798.04 1915.4,1933.92 1915.36,1933.93 779.483,798.05 "/>
     <polygon id="_385685200" class="fil1" points="779.483,798.05 1915.36,1933.93 1915.34,1933.94 779.46,798.058 "/>
     <polygon id="_385686040" class="fil1" points="779.46,798.058 1915.34,1933.94 1915.29,1933.96 779.404,798.077 "/>
     <polygon id="_385686160" class="fil1" points="779.404,798.077 1915.29,1933.96 1915.23,1933.98 779.35,798.095 "/>
     <polygon id="_385686064" class="fil1" points="779.35,798.095 1915.23,1933.98 1915.01,1934.05 779.131,798.168 "/>
     <polygon id="_385685488" class="fil1" points="779.131,798.168 1915.01,1934.05 1914.96,1934.07 779.076,798.186 "/>
     <polygon id="_385685848" class="fil1" points="779.076,798.186 1914.96,1934.07 1914.9,1934.09 779.021,798.204 "/>
     <polygon id="_385685824" class="fil1" points="779.021,798.204 1914.9,1934.09 1914.85,1934.1 778.966,798.221 "/>
     <polygon id="_385686472" class="fil1" points="778.966,798.221 1914.85,1934.1 1914.79,1934.12 778.912,798.239 "/>
     <polygon id="_385686568" class="fil1" points="778.912,798.239 1914.79,1934.12 1914.74,1934.14 778.856,798.256 "/>
     <polygon id="_385686736" class="fil1" points="778.856,798.256 1914.74,1934.14 1914.68,1934.16 778.801,798.273 "/>
     <polygon id="_385686952" class="fil1" points="778.801,798.273 1914.68,1934.16 1914.63,1934.17 778.745,798.29 "/>
     <polygon id="_385686616" class="fil1" points="778.745,798.29 1914.63,1934.17 1914.52,1934.21 778.634,798.324 "/>
     <polygon id="_385686352" class="fil1" points="778.634,798.324 1914.52,1934.21 1914.46,1934.22 778.579,798.341 "/>
     <polygon id="_385687552" class="fil1" points="778.579,798.341 1914.46,1934.22 1914.4,1934.24 778.523,798.357 "/>
     <polygon id="_385687312" class="fil1" points="778.523,798.357 1914.4,1934.24 1914.34,1934.26 778.46,798.376 "/>
     <polygon id="_385687648" class="fil1" points="778.46,798.376 1914.34,1934.26 1914.29,1934.27 778.412,798.39 "/>
     <polygon id="_385687528" class="fil1" points="778.412,798.39 1914.29,1934.27 1914.24,1934.29 778.357,798.406 "/>
     <polygon id="_385687384" class="fil1" points="778.357,798.406 1914.24,1934.29 1913.9,1934.38 778.02,798.5 "/>
     <polygon id="_385687480" class="fil1" points="778.02,798.5 1913.9,1934.38 1913.84,1934.4 777.963,798.516 "/>
     <polygon id="_385687720" class="fil1" points="777.963,798.516 1913.84,1934.4 1913.82,1934.4 777.94,798.521 "/>
     <polygon id="_385687936" class="fil1" points="777.94,798.521 1913.82,1934.4 1913.79,1934.41 777.907,798.53 "/>
     <polygon id="_385688320" class="fil1" points="777.907,798.53 1913.79,1934.41 1913.73,1934.43 777.85,798.545 "/>
     <polygon id="_385688344" class="fil1" points="777.85,798.545 1913.73,1934.43 1913.56,1934.47 777.681,798.589 "/>
     <polygon id="_385687768" class="fil1" points="777.681,798.589 1913.56,1934.47 1913.51,1934.49 777.624,798.603 "/>
     <polygon id="_385688080" class="fil1" points="777.624,798.603 1913.51,1934.49 1913.45,1934.5 777.568,798.617 "/>
     <polygon id="_385688176" class="fil1" points="777.568,798.617 1913.45,1934.5 1913.39,1934.51 777.51,798.631 "/>
     <polygon id="_385688056" class="fil1" points="777.51,798.631 1913.39,1934.51 1913.33,1934.53 777.453,798.645 "/>
     <polygon id="_385688632" class="fil1" points="777.453,798.645 1913.33,1934.53 1913.29,1934.54 777.413,798.656 "/>
     <polygon id="_385689136" class="fil1" points="777.413,798.656 1913.29,1934.54 1913.28,1934.54 777.396,798.66 "/>
     <polygon id="_385688944" class="fil1" points="777.396,798.66 1913.28,1934.54 1913.22,1934.56 777.34,798.674 "/>
     <polygon id="_385688728" class="fil1" points="777.34,798.674 1913.22,1934.56 1913.16,1934.57 777.282,798.687 "/>
     <polygon id="_385688560" class="fil1" points="777.282,798.687 1913.16,1934.57 1913.11,1934.58 777.225,798.7 "/>
     <polygon id="_385688656" class="fil1" points="776.867,798.759 1912.75,1934.64 1908.14,1935.63 1903.54,1936.59 1898.93,1937.53 1894.33,1938.44 1889.73,1939.33 1885.13,1940.2 1880.52,1941.05 1875.92,1941.87 1871.32,1942.67 1866.72,1943.44 1862.12,1944.19 1857.52,1944.92 1852.92,1945.63 1848.33,1946.31 1843.73,1946.97 1839.13,1947.6 1834.53,1948.22 1829.94,1948.81 1825.34,1949.37 1820.75,1949.91 1816.15,1950.43 1811.56,1950.93 1806.97,1951.4 1802.37,1951.85 1797.78,1952.28 1793.19,1952.68 1788.6,1953.06 1784.01,1953.42 1779.42,1953.75 1774.83,1954.06 1770.24,1954.35 1765.65,1954.61 629.773,818.727 634.361,818.463 638.95,818.176 643.538,817.867 648.128,817.534 652.719,817.177 657.31,816.797 661.902,816.394 666.493,815.968 671.086,815.519 675.68,815.046 680.273,814.55 684.867,814.031 689.462,813.488 694.058,812.923 698.653,812.333 703.25,811.721 707.847,811.086 712.444,810.427 717.043,809.746 721.641,809.039 726.24,808.31 730.84,807.559 735.44,806.784 740.042,805.986 744.642,805.164 749.245,804.318 753.846,803.45 758.45,802.558 763.053,801.643 767.657,800.705 772.262,799.744 "/>
     <polygon id="_385689712" class="fil1" points="777.225,798.7 1913.11,1934.58 1912.76,1934.66 776.88,798.778 "/>
     <polygon id="_385689976" class="fil1" points="493.02,712.579 1628.9,1848.46 1628.46,1848.48 492.58,712.595 "/>
     <polygon id="_385689784" class="fil1" points="485.566,814.996 1621.45,1950.88 1620.57,1950.83 1619.69,1950.74 1618.81,1950.62 1617.92,1950.46 1617.05,1950.27 1616.17,1950.04 1615.29,1949.77 1614.42,1949.46 478.543,813.581 479.413,813.886 480.287,814.155 481.165,814.386 482.044,814.58 482.925,814.738 483.806,814.859 484.687,814.945 "/>
     <polygon id="_385689856" class="fil1" points="478.543,813.581 1614.42,1949.46 1614.41,1949.46 478.529,813.576 "/>
     <polygon id="_385689496" class="fil1" points="478.529,813.576 1614.41,1949.46 1614.4,1949.45 478.516,813.57 "/>
     <polygon id="_385690024" class="fil1" points="478.516,813.57 1614.4,1949.45 1614.38,1949.45 478.502,813.565 "/>
     <polygon id="_385690240" class="fil1" points="478.502,813.565 1614.38,1949.45 1614.37,1949.44 478.489,813.56 "/>
     <polygon id="_385690744" class="fil1" points="478.489,813.56 1614.37,1949.44 1614.36,1949.44 478.474,813.555 "/>
     <polygon id="_385690432" class="fil1" points="478.474,813.555 1614.36,1949.44 1614.34,1949.43 478.461,813.55 "/>
     <polygon id="_385690768" class="fil1" points="478.461,813.55 1614.34,1949.43 1614.33,1949.43 478.447,813.544 "/>
     <polygon id="_385690144" class="fil1" points="478.447,813.544 1614.33,1949.43 1614.32,1949.42 478.434,813.539 "/>
     <polygon id="_385690312" class="fil1" points="478.434,813.539 1614.32,1949.42 1613.91,1949.26 478.03,813.381 "/>
     <polygon id="_385690408" class="fil1" points="478.03,813.381 1613.91,1949.26 1613.9,1949.26 478.017,813.375 "/>
     <polygon id="_385691128" class="fil1" points="478.017,813.375 1613.9,1949.26 1613.88,1949.25 478.003,813.37 "/>
     <polygon id="_385690888" class="fil1" points="478.003,813.37 1613.88,1949.25 1613.87,1949.25 477.99,813.364 "/>
     <polygon id="_385691344" class="fil1" points="477.99,813.364 1613.87,1949.25 1613.86,1949.24 477.977,813.36 "/>
     <polygon id="_385691392" class="fil1" points="477.977,813.36 1613.86,1949.24 1613.84,1949.24 477.963,813.354 "/>
     <polygon id="_385691584" class="fil1" points="477.963,813.354 1613.84,1949.24 1613.82,1949.23 477.937,813.343 "/>
     <polygon id="_385690840" class="fil1" points="477.937,813.343 1613.82,1949.23 1613.8,1949.22 477.923,813.337 "/>
     <polygon id="_385692328" class="fil1" points="477.923,813.337 1613.8,1949.22 1613.57,1949.12 477.689,813.238 "/>
     <polygon id="_385691944" class="fil1" points="477.689,813.238 1613.57,1949.12 1611.57,1948.16 1609.71,1947.03 1607.98,1945.73 1606.41,1944.29 470.529,808.412 472.104,809.849 473.824,811.143 475.689,812.277 "/>
     <polygon id="_385692160" class="fil1" points="629.773,818.727 1765.65,1954.61 1761.12,1954.85 1756.59,1955.06 1752.06,1955.25 1747.54,1955.42 1743.01,1955.57 1738.49,1955.69 1733.97,1955.79 1729.45,1955.87 1724.93,1955.92 1720.41,1955.95 1715.9,1955.96 1711.38,1955.95 1706.87,1955.91 1702.36,1955.85 1697.85,1955.77 1693.34,1955.66 1688.84,1955.54 1684.33,1955.39 1679.83,1955.21 1675.33,1955.02 1670.83,1954.8 1666.33,1954.55 1661.84,1954.29 1657.34,1954 1652.85,1953.69 1648.36,1953.36 1643.87,1953 1639.38,1952.62 1634.89,1952.22 1630.41,1951.8 1625.93,1951.35 1621.45,1950.88 485.566,814.996 490.047,815.466 494.53,815.913 499.014,816.337 503.501,816.739 507.988,817.118 512.477,817.475 516.969,817.808 521.462,818.118 525.956,818.407 530.451,818.671 534.949,818.913 539.449,819.133 543.949,819.329 548.451,819.504 552.956,819.654 557.462,819.783 561.969,819.888 566.477,819.97 570.988,820.031 575.501,820.067 580.014,820.081 584.529,820.072 589.047,820.04 593.566,819.986 598.086,819.909 602.607,819.809 607.131,819.686 611.656,819.539 616.183,819.37 620.711,819.179 625.241,818.964 "/>
     <polygon id="_385691824" class="fil1" points="873.556,896.14 2009.44,2032.02 2010.79,2033.58 2011.97,2035.25 2012.95,2037.01 2013.74,2038.86 2014.32,2040.79 2014.68,2042.78 2014.8,2044.84 878.917,908.953 878.796,906.9 878.441,904.903 877.862,902.975 877.073,901.125 876.085,899.363 874.908,897.698 "/>
     <polygon id="_385691920" class="fil1" points="878.917,908.953 2014.8,2044.84 2014.8,2048.61 878.917,912.728 "/>
     <polygon id="_385692544" class="fil1" points="878.917,912.728 2014.8,2048.61 2014.8,2167.27 878.917,1031.39 "/>
     <polygon id="_385693024" class="fil1" points="878.917,1031.39 2014.8,2167.27 2014.8,2193.69 878.917,1057.81 "/>
     <polygon id="_385692928" class="fil1" points="878.917,1057.81 2014.8,2193.69 2014.67,2196.17 2014.31,2198.57 2013.71,2200.89 2012.9,2203.11 2011.88,2205.22 2010.67,2207.22 2009.28,2209.08 2007.72,2210.79 2006,2212.35 2004.14,2213.75 2002.14,2214.96 2000.03,2215.98 1997.81,2216.79 1995.49,2217.38 1993.09,2217.75 1990.62,2217.88 854.736,1081.99 857.208,1081.87 859.609,1081.5 861.927,1080.91 864.148,1080.09 866.262,1079.07 868.256,1077.86 870.118,1076.47 871.835,1074.91 873.395,1073.19 874.788,1071.33 875.998,1069.34 877.016,1067.22 877.83,1065 878.425,1062.69 878.792,1060.28 "/>
     <polygon id="_385693048" class="fil1" points="854.736,1081.99 1990.62,2217.88 1845.53,2217.88 709.652,1081.99 "/>
     <polygon id="_385692472" class="fil1" points="709.652,1081.99 1845.53,2217.88 1843.06,2217.75 1840.66,2217.38 1838.34,2216.79 1836.12,2215.98 1834.01,2214.96 1832.01,2213.75 1830.15,2212.35 1828.44,2210.79 692.554,1074.91 694.271,1076.47 696.133,1077.86 698.127,1079.07 700.24,1080.09 702.461,1080.91 704.778,1081.5 707.18,1081.87 "/>
     <polygon id="_385693840" class="fil1" points="1362.53,912.728 2498.41,2048.61 2498.41,2167.27 1362.53,1031.39 "/>
     <polygon id="_385693696" class="fil1" points="1362.53,1031.39 2498.41,2167.27 2498.41,2193.69 1362.53,1057.81 "/>
     <polygon id="_385693288" class="fil1" points="1362.53,1057.81 2498.41,2193.69 2498.29,2196.17 2497.92,2198.57 2497.32,2200.89 2496.51,2203.11 2495.49,2205.22 2494.28,2207.22 2492.89,2209.08 2491.33,2210.79 2489.61,2212.35 2487.75,2213.75 2485.76,2214.96 2483.64,2215.98 2481.42,2216.79 2479.11,2217.38 2476.7,2217.75 2474.23,2217.88 1338.35,1081.99 1340.82,1081.87 1343.22,1081.5 1345.54,1080.91 1347.76,1080.09 1349.88,1079.07 1351.87,1077.86 1353.73,1076.47 1355.45,1074.91 1357.01,1073.19 1358.4,1071.33 1359.61,1069.34 1360.63,1067.22 1361.44,1065 1362.04,1062.69 1362.41,1060.28 "/>
     <polygon id="_385693816" class="fil1" points="1115.36,896.14 2251.25,2032.02 2252.6,2033.58 2253.77,2035.25 2254.76,2037.01 2255.55,2038.86 2256.13,2040.79 2256.49,2042.78 2256.61,2044.84 1120.73,908.953 1120.6,906.9 1120.25,904.903 1119.67,902.975 1118.88,901.125 1117.89,899.363 1116.72,897.698 "/>
     <polygon id="_385693576" class="fil1" points="1120.73,912.728 2256.61,2048.61 2256.61,2167.27 1120.73,1031.39 "/>
     <polygon id="_385693504" class="fil1" points="1357.17,896.14 2493.05,2032.02 2494.4,2033.58 2495.58,2035.25 2496.57,2037.01 2497.36,2038.86 2497.94,2040.79 2498.29,2042.78 2498.41,2044.84 1362.53,908.953 1362.41,906.9 1362.06,904.903 1361.48,902.975 1360.69,901.125 1359.7,899.363 1358.52,897.698 "/>
     <polygon id="_385694032" class="fil1" points="1362.53,908.953 2498.41,2044.84 2498.41,2048.61 1362.53,912.728 "/>
     <polygon id="_385694392" class="fil1" points="1120.73,908.953 2256.61,2044.84 2256.61,2048.61 1120.73,912.728 "/>
     <polygon id="_385694632" class="fil1" points="1338.35,1081.99 2474.23,2217.88 2329.15,2217.88 1193.27,1081.99 "/>
     <polygon id="_385694104" class="fil1" points="1193.27,1081.99 2329.15,2217.88 2326.68,2217.75 2324.27,2217.38 2321.96,2216.79 2319.74,2215.98 2317.62,2214.96 2315.63,2213.75 2313.77,2212.35 2312.05,2210.79 1176.17,1074.91 1177.88,1076.47 1179.75,1077.86 1181.74,1079.07 1183.85,1080.09 1186.08,1080.91 1188.39,1081.5 1190.79,1081.87 "/>
     <polygon id="_385694608" class="fil1" points="1362.53,1273.2 2498.41,2409.08 2498.41,2435.5 1362.53,1299.62 "/>
     <polygon id="_385695424" class="fil1" points="1120.73,1057.81 2256.61,2193.69 2256.48,2196.17 2256.12,2198.57 2255.52,2200.89 2254.71,2203.11 2253.69,2205.22 2252.48,2207.22 2251.08,2209.08 2249.52,2210.79 2247.81,2212.35 2245.94,2213.75 2243.95,2214.96 2241.84,2215.98 2239.62,2216.79 2237.3,2217.38 2234.9,2217.75 2232.42,2217.88 1096.54,1081.99 1099.02,1081.87 1101.42,1081.5 1103.73,1080.91 1105.96,1080.09 1108.07,1079.07 1110.06,1077.86 1111.92,1076.47 1113.64,1074.91 1115.2,1073.19 1116.59,1071.33 1117.81,1069.34 1118.82,1067.22 1119.64,1065 1120.23,1062.69 1120.6,1060.28 "/>
     <polygon id="_385695208" class="fil1" points="1096.54,1081.99 2232.42,2217.88 2087.34,2217.88 951.46,1081.99 "/>
     <polygon id="_385695304" class="fil1" points="951.46,1081.99 2087.34,2217.88 2084.87,2217.75 2082.47,2217.38 2080.15,2216.79 2077.93,2215.98 2075.81,2214.96 2073.82,2213.75 2071.96,2212.35 2070.24,2210.79 934.36,1074.91 936.077,1076.47 937.94,1077.86 939.934,1079.07 942.047,1080.09 944.268,1080.91 946.587,1081.5 948.988,1081.87 "/>
     <polygon id="_385694920" class="fil1" points="878.917,1150.76 2014.8,2286.64 2014.8,2290.42 878.917,1154.54 "/>
     <polygon id="_385695016" class="fil1" points="873.556,1137.95 2009.44,2273.83 2010.79,2275.39 2011.97,2277.05 2012.95,2278.81 2013.74,2280.66 2014.32,2282.59 2014.68,2284.59 2014.8,2286.64 878.917,1150.76 878.796,1148.71 878.441,1146.71 877.862,1144.78 877.073,1142.93 876.085,1141.17 874.908,1139.5 "/>
     <polygon id="_385695616" class="fil1" points="878.917,1154.54 2014.8,2290.42 2014.8,2409.08 878.917,1273.2 "/>
     <polygon id="_385695664" class="fil1" points="878.917,1273.2 2014.8,2409.08 2014.8,2435.5 878.917,1299.62 "/>
     <polygon id="_385663816" class="fil1" points="878.917,1299.62 2014.8,2435.5 2014.67,2437.97 2014.31,2440.37 2013.71,2442.69 2012.9,2444.91 2011.88,2447.03 2010.67,2449.02 2009.28,2450.88 2007.72,2452.6 2006,2454.16 2004.14,2455.55 2002.14,2456.76 2000.03,2457.78 1997.81,2458.6 1995.49,2459.19 1993.09,2459.56 1990.62,2459.68 854.736,1323.8 857.208,1323.68 859.609,1323.31 861.927,1322.71 864.148,1321.9 866.262,1320.88 868.256,1319.67 870.118,1318.28 871.835,1316.72 873.395,1315 874.788,1313.14 875.998,1311.15 877.016,1309.03 877.83,1306.81 878.425,1304.49 878.792,1302.09 "/>
     <polygon id="_385663288" class="fil1" points="854.736,1323.8 1990.62,2459.68 1845.53,2459.68 709.652,1323.8 "/>
     <polygon id="_385663336" class="fil1" points="709.652,1323.8 1845.53,2459.68 1843.06,2459.56 1840.66,2459.19 1838.34,2458.6 1836.12,2457.78 1834.01,2456.76 1832.01,2455.55 1830.15,2454.16 694.271,1318.28 696.133,1319.67 698.127,1320.88 700.24,1321.9 702.461,1322.71 704.778,1323.31 707.18,1323.68 "/>
     <polygon id="_385663552" class="fil1" points="1120.73,1150.76 2256.61,2286.64 2256.61,2290.42 1120.73,1154.54 "/>
     <polygon id="_385663720" class="fil1" points="1115.36,1137.95 2251.25,2273.83 2252.6,2275.39 2253.77,2277.05 2254.76,2278.81 2255.55,2280.66 2256.13,2282.59 2256.49,2284.59 2256.61,2286.64 1120.73,1150.76 1120.6,1148.71 1120.25,1146.71 1119.67,1144.78 1118.88,1142.93 1117.89,1141.17 1116.72,1139.5 "/>
     <polygon id="_385663768" class="fil1" points="1120.73,1154.54 2256.61,2290.42 2256.61,2409.08 1120.73,1273.2 "/>
     <polygon id="_385663648" class="fil1" points="1120.73,1273.2 2256.61,2409.08 2256.61,2435.5 1120.73,1299.62 "/>
     <polygon id="_385664248" class="fil1" points="1120.73,1299.62 2256.61,2435.5 2256.48,2437.97 2256.12,2440.37 2255.52,2442.69 2254.71,2444.91 2253.69,2447.03 2252.48,2449.02 2251.08,2450.88 2249.52,2452.6 2247.81,2454.16 2245.94,2455.55 2243.95,2456.76 2241.84,2457.78 2239.62,2458.6 2237.3,2459.19 2234.9,2459.56 2232.42,2459.68 1096.54,1323.8 1099.02,1323.68 1101.42,1323.31 1103.73,1322.71 1105.96,1321.9 1108.07,1320.88 1110.06,1319.67 1111.92,1318.28 1113.64,1316.72 1115.2,1315 1116.59,1313.14 1117.81,1311.15 1118.82,1309.03 1119.64,1306.81 1120.23,1304.49 1120.6,1302.09 "/>
     <polygon id="_385664272" class="fil1" points="1096.54,1323.8 2232.42,2459.68 2087.34,2459.68 951.46,1323.8 "/>
     <polygon id="_385663960" class="fil1" points="951.46,1323.8 2087.34,2459.68 2084.87,2459.56 2082.47,2459.19 2080.15,2458.6 2077.93,2457.78 2075.81,2456.76 2073.82,2455.55 2071.96,2454.16 2070.24,2452.6 934.36,1316.72 936.077,1318.28 937.94,1319.67 939.934,1320.88 942.047,1321.9 944.268,1322.71 946.587,1323.31 948.988,1323.68 "/>
     <polygon id="_385664464" class="fil1" points="878.917,1392.57 2014.8,2528.45 2014.8,2532.23 878.917,1396.34 "/>
     <polygon id="_385664512" class="fil1" points="872.038,1378.31 2007.92,2514.2 2009.44,2515.64 2010.79,2517.19 2011.97,2518.86 2012.95,2520.62 2013.74,2522.47 2014.32,2524.4 2014.68,2526.4 2014.8,2528.45 878.917,1392.57 878.796,1390.51 878.441,1388.52 877.862,1386.59 877.073,1384.74 876.085,1382.98 874.908,1381.31 873.556,1379.75 "/>
     <polygon id="_385665280" class="fil1" points="878.917,1396.34 2014.8,2532.23 2014.8,2650.89 878.917,1515 "/>
     <polygon id="_385664728" class="fil1" points="878.917,1515 2014.8,2650.89 2014.8,2677.31 878.917,1541.43 "/>
     <polygon id="_385665448" class="fil1" points="878.917,1541.43 2014.8,2677.31 2014.67,2679.78 2014.31,2682.18 2013.71,2684.5 2012.9,2686.72 2011.88,2688.83 2010.67,2690.83 2009.28,2692.69 2007.72,2694.41 2006,2695.97 2004.14,2697.36 2002.14,2698.57 2000.03,2699.59 1997.81,2700.4 1995.49,2701 1993.09,2701.37 1990.62,2701.49 854.736,1565.61 857.208,1565.48 859.609,1565.12 861.927,1564.52 864.148,1563.71 866.262,1562.69 868.256,1561.48 870.118,1560.09 871.835,1558.52 873.395,1556.81 874.788,1554.95 875.998,1552.95 877.016,1550.84 877.83,1548.62 878.425,1546.3 878.792,1543.9 "/>
     <polygon id="_385665184" class="fil1" points="854.736,1565.61 1990.62,2701.49 1845.53,2701.49 709.652,1565.61 "/>
     <polygon id="_385665136" class="fil1" points="709.652,1565.61 1845.53,2701.49 1843.06,2701.37 1840.66,2701 1838.34,2700.4 1836.12,2699.59 1834.01,2698.57 1832.01,2697.36 1830.15,2695.97 694.271,1560.09 696.133,1561.48 698.127,1562.69 700.24,1563.71 702.461,1564.52 704.778,1565.12 707.18,1565.48 "/>
     <polygon id="_385664824" class="fil1" points="1357.17,1137.95 2493.05,2273.83 2494.4,2275.39 2495.58,2277.05 2496.57,2278.81 2497.36,2280.66 2497.94,2282.59 2498.29,2284.59 2498.41,2286.64 1362.53,1150.76 1362.41,1148.71 1362.06,1146.71 1361.48,1144.78 1360.69,1142.93 1359.7,1141.17 1358.52,1139.5 "/>
     <polygon id="_385665520" class="fil1" points="1362.53,1150.76 2498.41,2286.64 2498.41,2290.42 1362.53,1154.54 "/>
     <polygon id="_385666216" class="fil1" points="1362.53,1154.54 2498.41,2290.42 2498.41,2409.08 1362.53,1273.2 "/>
     <polygon id="_385665736" class="fil1" points="1120.73,1031.39 2256.61,2167.27 2256.61,2193.69 1120.73,1057.81 "/>
     <polygon id="_385665760" class="fil1" points="1362.53,1299.62 2498.41,2435.5 2498.29,2437.97 2497.92,2440.37 2497.32,2442.69 2496.51,2444.91 2495.49,2447.03 2494.28,2449.02 2492.89,2450.88 2491.33,2452.6 2489.61,2454.16 2487.75,2455.55 2485.76,2456.76 2483.64,2457.78 2481.42,2458.6 2479.11,2459.19 2476.7,2459.56 2474.23,2459.68 1338.35,1323.8 1340.82,1323.68 1343.22,1323.31 1345.54,1322.71 1347.76,1321.9 1349.88,1320.88 1351.87,1319.67 1353.73,1318.28 1355.45,1316.72 1357.01,1315 1358.4,1313.14 1359.61,1311.15 1360.63,1309.03 1361.44,1306.81 1362.04,1304.49 1362.41,1302.09 "/>
     <polygon id="_385666240" class="fil1" points="1338.35,1323.8 2474.23,2459.68 2329.15,2459.68 1193.27,1323.8 "/>
     <polygon id="_385666312" class="fil1" points="1193.27,1323.8 2329.15,2459.68 2326.68,2459.56 2324.27,2459.19 2321.96,2458.6 2319.74,2457.78 2317.62,2456.76 2315.63,2455.55 2313.77,2454.16 2312.05,2452.6 1176.17,1316.72 1177.88,1318.28 1179.75,1319.67 1181.74,1320.88 1183.85,1321.9 1186.08,1322.71 1188.39,1323.31 1190.79,1323.68 "/>
     <polygon id="_385666432" class="fil1" points="1115.36,1379.75 2251.25,2515.64 2252.6,2517.19 2253.77,2518.86 2254.76,2520.62 2255.55,2522.47 2256.13,2524.4 2256.49,2526.4 2256.61,2528.45 1120.73,1392.57 1120.6,1390.51 1120.25,1388.52 1119.67,1386.59 1118.88,1384.74 1117.89,1382.98 1116.72,1381.31 "/>
     <polygon id="_385667464" class="fil1" points="1120.73,1392.57 2256.61,2528.45 2256.61,2532.23 1120.73,1396.34 "/>
     <polygon id="_385669384" class="fil1" points="1120.73,1396.34 2256.61,2532.23 2256.61,2650.89 1120.73,1515 "/>
     <polygon id="_385669432" class="fil1" points="1120.73,1515 2256.61,2650.89 2256.61,2677.31 1120.73,1541.43 "/>
     <polygon id="_385669576" class="fil1" points="1120.73,1541.43 2256.61,2677.31 2256.48,2679.78 2256.12,2682.18 2255.52,2684.5 2254.71,2686.72 2253.69,2688.83 2252.48,2690.83 2251.08,2692.69 2249.52,2694.41 2247.81,2695.97 2245.94,2697.36 2243.95,2698.57 2241.84,2699.59 2239.62,2700.4 2237.3,2701 2234.9,2701.37 2232.42,2701.49 1096.54,1565.61 1099.02,1565.48 1101.42,1565.12 1103.73,1564.52 1105.96,1563.71 1108.07,1562.69 1110.06,1561.48 1111.92,1560.09 1113.64,1558.52 1115.2,1556.81 1116.59,1554.95 1117.81,1552.95 1118.82,1550.84 1119.64,1548.62 1120.23,1546.3 1120.6,1543.9 "/>
     <polygon id="_385670392" class="fil1" points="1096.54,1565.61 2232.42,2701.49 2087.34,2701.49 951.46,1565.61 "/>
     <polygon id="_385671376" class="fil1" points="951.46,1565.61 2087.34,2701.49 2084.87,2701.37 2082.47,2701 2080.15,2700.4 2077.93,2699.59 2075.81,2698.57 2073.82,2697.36 2071.96,2695.97 936.077,1560.09 937.94,1561.48 939.934,1562.69 942.047,1563.71 944.268,1564.52 946.587,1565.12 948.988,1565.48 "/>
     <polygon id="_385676608" class="fil1" points="1357.17,1379.75 2493.05,2515.64 2494.4,2517.19 2495.58,2518.86 2496.57,2520.62 2497.36,2522.47 2497.94,2524.4 2498.29,2526.4 2498.41,2528.45 1362.53,1392.57 1362.41,1390.51 1362.06,1388.52 1361.48,1386.59 1360.69,1384.74 1359.7,1382.98 1358.52,1381.31 "/>
     <polygon id="_385677232" class="fil1" points="1362.53,1392.57 2498.41,2528.45 2498.41,2532.23 1362.53,1396.34 "/>
     <polygon id="_385677352" class="fil1" points="1362.53,1396.34 2498.41,2532.23 2498.41,2650.89 1362.53,1515 "/>
     <polygon id="_385677760" class="fil1" points="1362.53,1515 2498.41,2650.89 2498.41,2677.31 1362.53,1541.43 "/>
     <polygon id="_385677688" class="fil1" points="1362.53,1541.43 2498.41,2677.31 2498.29,2679.78 2497.92,2682.18 2497.32,2684.5 2496.51,2686.72 2495.49,2688.83 2494.28,2690.83 2492.89,2692.69 2491.33,2694.41 2489.61,2695.97 2487.75,2697.36 2485.76,2698.57 2483.64,2699.59 2481.42,2700.4 2479.11,2701 2476.7,2701.37 2474.23,2701.49 1338.35,1565.61 1340.82,1565.48 1343.22,1565.12 1345.54,1564.52 1347.76,1563.71 1349.88,1562.69 1351.87,1561.48 1353.73,1560.09 1355.45,1558.52 1357.01,1556.81 1358.4,1554.95 1359.61,1552.95 1360.63,1550.84 1361.44,1548.62 1362.04,1546.3 1362.41,1543.9 "/>
     <polygon id="_385677712" class="fil1" points="1338.35,1565.61 2474.23,2701.49 2329.15,2701.49 1193.27,1565.61 "/>
     <polygon id="_385678192" class="fil1" points="1193.27,1565.61 2329.15,2701.49 2326.68,2701.37 2324.27,2701 2321.96,2700.4 2319.74,2699.59 2317.62,2698.57 2315.63,2697.36 2313.77,2695.97 2312.05,2694.41 1176.17,1558.52 1177.88,1560.09 1179.75,1561.48 1181.74,1562.69 1183.85,1563.71 1186.08,1564.52 1188.39,1565.12 1190.79,1565.48 "/>
    </g>
    <path id="_385689832" class="fil1" d="M780.425 797.701l0 0zm-1.45866 0.520867l0 0zm-0.498426 0.152362l0 0zm-300.779 14.8642l0 0zm89.8264 -272.817c155.047,-38.6847 305.798,-58.0288 456.487,-58.0288 150.206,0 300.474,19.2225 454.996,57.6615 7.56142,1.3252 14.2406,6.50079 17.1295,14.2051l-0.0602363 0.080315 58.8733 156.967 1.14685 0.0437008c0.451181,1.20473 8.12717,21.0071 9.32127,27.867l16.3819 43.6796c0.992127,2.06457 1.68307,4.31811 2.00551,6.70985 1.54488,11.4673 -5.87481,22.0772 -16.8709,24.7583l0.142913 0.0389764c-0.355512,0.0956694 -3.58111,0.804331 -3.65788,0.640158l-7.50827 0.817323c-23.2795,2.86181 -46.6052,4.61575 -69.9756,5.29843 -16.5697,0.590552 -33.137,0.604725 -49.9323,-0.153543 -5.91851,-0.206693 -11.8394,-0.479528 -17.7626,-0.819686 -48.5079,-2.78268 -97.1635,-9.95788 -145.952,-21.1902 -11.1118,-1.78701 -19.3453,-11.6787 -18.7961,-23.1851l0.0625985 0.00354331 0.988583 -20.7272c0.249213,-5.24292 0.46063,-9.16418 0.661418,-12.9071 0.369685,-6.88111 0.698032,-13.0122 0.733465,-18.5256l1.37717 0.0531496 -3.41339 -22.441 -1.21772 -0.0472441c-7.76812,-18.5457 -32.3681,-26.9185 -103.321,-39.0697 -40.1327,-6.87284 -82.669,-10.3099 -125.353,-10.3087 -42.6839,-0.0011811 -85.2201,3.43583 -125.353,10.3087 -67.4245,11.5465 -92.9894,19.6807 -102.033,36.3768l-4.1752 27.5315 -0.333071 0.0129921c0.0980316,4.87441 0.383859,10.2165 0.700394,16.1091 0.200788,3.74292 0.412205,7.66418 0.661418,12.9071l0.90945 19.0547c1.26024,10.1587 -4.56615,19.8366 -13.9524,23.5583l-0.427559 0.164173 -0.0141732 0.00472441 -0.416929 0.151181 -0.0543308 0.0188977 -0.0307087 0.0106299 -0.0236221 0.00826772 -0.0555119 0.0188977 -0.0543308 0.0177165 -0.218504 0.0732284 -0.0555119 0.0177165 -0.0543308 0.0177165 -0.0555119 0.0177165 -0.0543308 0.0177165 -0.0555119 0.0165354 -0.0555119 0.0177165 -0.0555119 0.0165354 -0.111024 0.034252 -0.0555119 0.0165354 -0.0555119 0.0165354 -0.0625985 0.0188977 -0.0484252 0.0141732 -0.0555119 0.0153543 -0.336614 0.0944883 -0.056693 0.0153543 -0.0236221 0.00590552 -0.0330709 0.00826772 -0.056693 0.0153543 -0.168898 0.0437008 -0.056693 0.0141732 -0.056693 0.0141732 -0.0578741 0.0141732 -0.056693 0.0141732 -0.0401575 0.0106299 -0.0165354 0.00354331 -0.056693 0.0141732 -0.0578741 0.0129921 -0.056693 0.0129921 -0.344882 0.0779528 -0.0129921 -0.0188977c-49.1244,10.6299 -98.1568,17.2807 -147.095,19.9677 -48.3449,2.65512 -96.4158,1.40433 -144.207,-3.73111 -2.34095,-0.0885827 -4.70906,-0.548032 -7.02284,-1.41496l-0.0141732 -0.00472441 -0.0129921 -0.00590552 -0.0141732 -0.00472441 -0.0129921 -0.00472441 -0.0141732 -0.00590552 -0.0129921 -0.00472441 -0.0141732 -0.00590552 -0.0129921 -0.00472441 -0.403937 -0.158268 -0.0129921 -0.00590552 -0.0141732 -0.00472441 -0.0129921 -0.00590552 -0.0129921 -0.00472441 -0.0141732 -0.00590552 -0.0259843 -0.0106299 -0.0141732 -0.00590552 -0.233858 -0.0992127c-11.0185,-4.64646 -16.4953,-17.2099 -12.2563,-28.5059l0.080315 0.0307087 18.5776 -49.5319 1.66299 -0.0637796 7.26615 -22.5886 -0.43937 0.0165354 58.6784 -156.45c2.09055,-7.52008 8.05749,-13.7327 16.1717,-15.7571l0.0850394 0.0330709zm771.459 831.748c13.0654,0.27874 23.5571,9.30473 23.5571,20.3988l0 3.77481 0 118.662 0 26.4213c0,13.3547 -10.8272,24.1819 -24.1807,24.1819l-145.084 0c-13.3547,0 -24.1807,-10.8272 -24.1807,-24.1819l0 -26.4213 0 -118.662 0 -3.77481c0,-11.0941 10.4906,-20.1201 23.5571,-20.4 47.7508,-1.36417 97.7103,-0.00708662 145.708,-0.00708662l0.623623 0.00826772zm23.5571 -459.441l0 118.663 0 26.4213c0,13.3547 -10.8272,24.1807 -24.1807,24.1807l-145.084 0c-13.3547,0 -24.1807,-10.826 -24.1807,-24.1807l0 -26.4213 0 -118.663 0 -3.77481c0,-11.0941 10.4906,-20.1189 23.5571,-20.3988 47.7508,-1.36417 97.7103,-0.00708662 145.708,-0.00708662l0.623623 0.00826772c13.0654,0.27874 23.5571,9.30355 23.5571,20.3977l0 3.77481zm-169.889 217.632c47.7508,-1.36417 97.7103,-0.00708662 145.708,-0.00708662l0.623623 0.00826772c13.0654,0.27874 23.5571,9.30473 23.5571,20.3988l0 3.77481 0 118.662 0 26.4213c0,13.3547 -10.8272,24.1819 -24.1807,24.1819l-145.084 0c-13.3547,0 -24.1807,-10.8272 -24.1807,-24.1819l0 -26.4213 0 -118.662 0 -3.77481c0,-11.0941 10.4906,-20.1201 23.5571,-20.4zm-95.4757 241.808c13.0665,0.27874 23.5583,9.30473 23.5583,20.3988l0 3.77481 0 118.662 0 26.4213c0,13.3547 -10.8272,24.1819 -24.1819,24.1819l-145.083 0c-13.3559,0 -24.1819,-10.8272 -24.1819,-24.1819l0 -26.4213 0 -118.662 0 -3.77481c0,-11.0941 10.4906,-20.1201 23.5583,-20.4 47.7508,-1.36417 97.7091,-0.00708662 145.707,-0.00708662l0.623623 0.00826772zm-146.33 -241.808c47.7508,-1.36417 97.7091,-0.00708662 145.707,-0.00708662l0.623623 0.00826772c13.0665,0.27874 23.5583,9.30473 23.5583,20.3988l0 3.77481 0 118.662 0 26.4213c0,13.3547 -10.8272,24.1819 -24.1819,24.1819l-145.083 0c-13.3559,0 -24.1819,-10.8272 -24.1819,-24.1819l0 -26.4213 0 -118.662 0 -3.77481c0,-11.0941 10.4906,-20.1201 23.5583,-20.4zm-95.4768 241.808c13.0665,0.27874 23.5571,9.30473 23.5571,20.3988l0 3.77481 0 118.662 0 26.4213c0,13.3547 -10.826,24.1819 -24.1807,24.1819l-145.084 0c-13.3536,0 -24.1807,-10.8272 -24.1807,-24.1819l0 -26.4213 0 -118.662 0 -3.77481c0,-11.0941 10.4917,-20.1201 23.5571,-20.4 47.7508,-1.36417 97.7103,-0.00708662 145.708,-0.00708662l0.623623 0.00826772zm241.807 -483.613c13.0665,0.27874 23.5583,9.30355 23.5583,20.3977l0 3.77481 0 118.663 0 26.4213c0,13.3547 -10.8272,24.1807 -24.1819,24.1807l-145.083 0c-13.3559,0 -24.1819,-10.826 -24.1819,-24.1807l0 -26.4213 0 -118.663 0 -3.77481c0,-11.0941 10.4906,-20.1189 23.5583,-20.3988 47.7508,-1.36417 97.7091,-0.00708662 145.707,-0.00708662l0.623623 0.00826772zm-241.807 241.806c13.0665,0.27874 23.5571,9.30473 23.5571,20.3988l0 3.77481 0 118.662 0 26.4213c0,13.3547 -10.826,24.1819 -24.1807,24.1819l-145.084 0c-13.3536,0 -24.1807,-10.8272 -24.1807,-24.1819l0 -26.4213 0 -118.662 0 -3.77481c0,-11.0941 10.4917,-20.1201 23.5571,-20.4 47.7508,-1.36417 97.7103,-0.00708662 145.708,-0.00708662l0.623623 0.00826772zm0 -241.806c13.0665,0.27874 23.5571,9.30355 23.5571,20.3977l0 3.77481 0 118.663 0 26.4213c0,13.3547 -10.826,24.1807 -24.1807,24.1807l-145.084 0c-13.3536,0 -24.1807,-10.826 -24.1807,-24.1807l0 -26.4213 0 -118.663 0 -3.77481c0,-11.0941 10.4917,-20.1189 23.5571,-20.3988 47.7508,-1.36417 97.7103,-0.00708662 145.708,-0.00708662l0.623623 0.00826772z"/>
   </g>
  </g>
  <path class="fil2" d="M1024 0c565.538,0 1024,458.462 1024,1024 0,565.538 -458.462,1024 -1024,1024 -565.538,0 -1024,-458.462 -1024,-1024 0,-565.538 458.462,-1024 1024,-1024z"/>
  <path class="fil3" d="M1556.09 711.35c0.548032,1.46102 11.7236,30.2835 9.07087,30.1866l-306.93 -11.7685 -4.56615 -30.013 302.425 11.5949z"/>
  <path class="fil3" d="M796.781 697.434l-4.34055 28.624 -307.55 11.791 9.07205 -28.2036 302.549 -11.602c0.0874016,-0.204331 0.177165,-0.407481 0.269292,-0.609449z"/>
  <path class="fil4" d="M1255.93 723.655c-0.0354331,5.51339 -0.36378,11.6433 -0.733465,18.5256 -0.200788,3.74174 -0.412205,7.66536 -0.661418,12.9071l-0.988583 20.7272 -0.0637796 -0.00354331c-0.548032,11.5063 7.68544,21.398 18.7973,23.1851 48.789,11.2323 97.4446,18.4087 145.952,21.1902 48.9674,2.80748 97.7516,1.11024 146.335,-5.44252l-2.9752 -22.1421 2.99528 22.2036c12.2622,-1.65354 20.8618,-12.9366 19.2095,-25.1988 -0.322441,-2.39173 -1.01339,-4.64528 -2.00551,-6.70985l-17.8004 -47.4615c-0.355512,0.00708662 -0.713386,0.00354331 -1.0748,-0.00944883l-306.986 -11.7709z"/>
  <path class="fil4" d="M484.089 735.231l-18.5776 49.5319 -0.080315 -0.0307087c-4.3441,11.5866 1.5248,24.5032 13.1102,28.8484 2.31378,0.86693 4.68189,1.32638 7.02284,1.41496 47.791,5.13544 95.8619,6.38623 144.207,3.73229 48.9378,-2.68701 97.9702,-9.33898 147.095,-19.9689l0.0129921 0.0188977c11.4248,-2.47205 18.9118,-13.252 17.4992,-24.6355l-0.908268 -19.0547c-0.250394,-5.24174 -0.461811,-9.16536 -0.662599,-12.9071 -0.375591,-6.97914 -0.707481,-13.1858 -0.735827,-18.7583l-307.982 11.8087z"/>
  <path class="fil5" d="M1479 540.054c-154.523,-38.439 -304.791,-57.6615 -454.996,-57.6615 -150.689,0 -301.44,19.3441 -456.487,58.03l5.33977 21.7063 -5.42481 -21.7406c-8.11418,2.02441 -14.0811,8.23701 -16.1717,15.7571l-58.6784 156.45 302.849 -11.6114c7.87796,-18.3815 32.5689,-26.7343 103.22,-38.8335 40.1327,-6.87284 82.669,-10.3099 125.353,-10.3087 42.6839,-0.0011811 85.2201,3.43583 125.353,10.3087 70.9524,12.1512 95.5524,20.524 103.322,39.0697l302.836 11.6114 -59.4449 -158.492 -20.9173 7.78938 20.9776 -7.86969c-2.88898,-7.70434 -9.56812,-12.8799 -17.1295,-14.2051z"/>
  <path class="fil6" d="M629.771 818.728c-48.3449,2.65394 -96.4158,1.40315 -144.207,-3.73229 -2.34095,-0.0885827 -4.70906,-0.548032 -7.02284,-1.41496 -0.28937,-0.108662 -0.575197,-0.223229 -0.857481,-0.341339 30.6933,-7.50237 67.2308,-13.6417 107.615,-17.6303 73.1044,-7.22127 143.488,-5.87717 195.127,2.09173 -1.13268,0.448819 -2.31732,0.810237 -3.54685,1.07717l-0.0129921 -0.0188977c-49.1244,10.6299 -98.1568,17.2819 -147.095,19.9689z"/>
  <path class="fil6" d="M1417.62 819.869c-48.3272,-2.95866 -95.9304,-9.763 -142.806,-20.3941 -2.31496,-0.359055 -4.61339,-1.09016 -6.81142,-2.21929 -0.275197,-0.141732 -0.54567,-0.288189 -0.812599,-0.438189 31.3559,-3.89882 51.9201,-6.05788 108.932,-5.05867 57.0119,0.999213 140.575,8.75552 190.944,22.6453 -1.17756,0.315355 -2.39528,0.537402 -3.64843,0.660237l-0.00944883 -0.0200788c-49.7256,5.5193 -96.4453,8.72481 -145.788,4.82481z"/>
  <path class="fil7" d="M709.651 888.548l145.084 0c13.3547,0 24.1807,10.826 24.1807,24.1807l0 145.084c0,13.3547 -10.826,24.1807 -24.1807,24.1807l-145.084 0c-13.3547,0 -24.1807,-10.826 -24.1807,-24.1807l0 -145.084c0,-13.3547 10.826,-24.1807 24.1807,-24.1807z"/>
  <path class="fil8" d="M709.651 888.548l145.084 0c13.3547,0 24.1807,9.13701 24.1807,20.4059l0 122.438c0,11.2701 -10.826,20.4071 -24.1807,20.4071l-145.084 0c-13.3547,0 -24.1807,-9.13701 -24.1807,-20.4071l0 -122.438c0,-11.2689 10.826,-20.4059 24.1807,-20.4059z"/>
  <path class="fil7" d="M951.458 888.548l145.084 0c13.3547,0 24.1819,10.826 24.1819,24.1807l0 145.084c0,13.3547 -10.8272,24.1807 -24.1819,24.1807l-145.084 0c-13.3536,0 -24.1807,-10.826 -24.1807,-24.1807l0 -145.084c0,-13.3547 10.8272,-24.1807 24.1807,-24.1807z"/>
  <path class="fil8" d="M951.458 888.548l145.084 0c13.3547,0 24.1819,9.13701 24.1819,20.4059l0 122.438c0,11.2701 -10.8272,20.4071 -24.1819,20.4071l-145.084 0c-13.3536,0 -24.1807,-9.13701 -24.1807,-20.4071l0 -122.438c0,-11.2689 10.8272,-20.4059 24.1807,-20.4059z"/>
  <path class="fil7" d="M1193.27 888.548l145.084 0c13.3547,0 24.1807,10.826 24.1807,24.1807l0 145.084c0,13.3547 -10.826,24.1807 -24.1807,24.1807l-145.084 0c-13.3547,0 -24.1807,-10.826 -24.1807,-24.1807l0 -145.084c0,-13.3547 10.826,-24.1807 24.1807,-24.1807z"/>
  <path class="fil8" d="M1193.27 888.548l145.084 0c13.3547,0 24.1807,9.13701 24.1807,20.4059l0 122.438c0,11.2701 -10.826,20.4071 -24.1807,20.4071l-145.084 0c-13.3547,0 -24.1807,-9.13701 -24.1807,-20.4071l0 -122.438c0,-11.2689 10.826,-20.4059 24.1807,-20.4059z"/>
  <path class="fil7" d="M709.651 1130.35l145.084 0c13.3547,0 24.1807,10.8272 24.1807,24.1819l0 145.083c0,13.3547 -10.826,24.1819 -24.1807,24.1819l-145.084 0c-13.3547,0 -24.1807,-10.8272 -24.1807,-24.1819l0 -145.083c0,-13.3547 10.826,-24.1819 24.1807,-24.1819z"/>
  <path class="fil8" d="M709.651 1130.35l145.084 0c13.3547,0 24.1807,9.13701 24.1807,20.4071l0 122.437c0,11.2701 -10.826,20.4071 -24.1807,20.4071l-145.084 0c-13.3547,0 -24.1807,-9.13701 -24.1807,-20.4071l0 -122.437c0,-11.2701 10.826,-20.4071 24.1807,-20.4071z"/>
  <path class="fil7" d="M951.458 1130.35l145.084 0c13.3547,0 24.1819,10.8272 24.1819,24.1819l0 145.083c0,13.3547 -10.8272,24.1819 -24.1819,24.1819l-145.084 0c-13.3536,0 -24.1807,-10.8272 -24.1807,-24.1819l0 -145.083c0,-13.3547 10.8272,-24.1819 24.1807,-24.1819z"/>
  <path class="fil8" d="M951.458 1130.35l145.084 0c13.3547,0 24.1819,9.13701 24.1819,20.4071l0 122.437c0,11.2701 -10.8272,20.4071 -24.1819,20.4071l-145.084 0c-13.3536,0 -24.1807,-9.13701 -24.1807,-20.4071l0 -122.437c0,-11.2701 10.8272,-20.4071 24.1807,-20.4071z"/>
  <path class="fil7" d="M1193.27 1130.35l145.084 0c13.3547,0 24.1807,10.8272 24.1807,24.1819l0 145.083c0,13.3547 -10.826,24.1819 -24.1807,24.1819l-145.084 0c-13.3547,0 -24.1807,-10.8272 -24.1807,-24.1819l0 -145.083c0,-13.3547 10.826,-24.1819 24.1807,-24.1819z"/>
  <path class="fil8" d="M1193.27 1130.35l145.084 0c13.3547,0 24.1807,9.13701 24.1807,20.4071l0 122.437c0,11.2701 -10.826,20.4071 -24.1807,20.4071l-145.084 0c-13.3547,0 -24.1807,-9.13701 -24.1807,-20.4071l0 -122.437c0,-11.2701 10.826,-20.4071 24.1807,-20.4071z"/>
  <path class="fil7" d="M709.651 1372.16l145.084 0c13.3547,0 24.1807,10.8272 24.1807,24.1819l0 145.084c0,13.3536 -10.826,24.1807 -24.1807,24.1807l-145.084 0c-13.3547,0 -24.1807,-10.8272 -24.1807,-24.1807l0 -145.084c0,-13.3547 10.826,-24.1819 24.1807,-24.1819z"/>
  <path class="fil8" d="M709.651 1372.16l145.084 0c13.3547,0 24.1807,9.13701 24.1807,20.4071l0 122.438c0,11.2689 -10.826,20.4059 -24.1807,20.4059l-145.084 0c-13.3547,0 -24.1807,-9.13701 -24.1807,-20.4059l0 -122.438c0,-11.2701 10.826,-20.4071 24.1807,-20.4071z"/>
  <path class="fil7" d="M951.458 1372.16l145.084 0c13.3547,0 24.1819,10.8272 24.1819,24.1819l0 145.084c0,13.3536 -10.8272,24.1807 -24.1819,24.1807l-145.084 0c-13.3536,0 -24.1807,-10.8272 -24.1807,-24.1807l0 -145.084c0,-13.3547 10.8272,-24.1819 24.1807,-24.1819z"/>
  <path class="fil8" d="M951.458 1372.16l145.084 0c13.3547,0 24.1819,9.13701 24.1819,20.4071l0 122.438c0,11.2689 -10.8272,20.4059 -24.1819,20.4059l-145.084 0c-13.3536,0 -24.1807,-9.13701 -24.1807,-20.4059l0 -122.438c0,-11.2701 10.8272,-20.4071 24.1807,-20.4071z"/>
  <path class="fil7" d="M1193.27 1372.16l145.084 0c13.3547,0 24.1807,10.8272 24.1807,24.1819l0 145.084c0,13.3536 -10.826,24.1807 -24.1807,24.1807l-145.084 0c-13.3547,0 -24.1807,-10.8272 -24.1807,-24.1807l0 -145.084c0,-13.3547 10.826,-24.1819 24.1807,-24.1819z"/>
  <path class="fil8" d="M1193.27 1372.16l145.084 0c13.3547,0 24.1807,9.13701 24.1807,20.4071l0 122.438c0,11.2689 -10.826,20.4059 -24.1807,20.4059l-145.084 0c-13.3547,0 -24.1807,-9.13701 -24.1807,-20.4059l0 -122.438c0,-11.2701 10.826,-20.4071 24.1807,-20.4071z"/>
 </g>
</svg>
