<svg xmlns="http://www.w3.org/2000/svg" viewBox="0 0 48 48"><defs><style>.cls-1{fill:#9fdbf3;}.cls-2{fill:#b2e5fb;}.cls-3{fill:#7c7d7d;}.cls-4{fill:#919191;}.cls-5{fill:#dad7e5;}.cls-6{fill:#edebf2;}.cls-7{fill:#82bcf4;}.cls-8{fill:#374f68;}.cls-9{fill:#425b72;}</style></defs><title>setting computer information</title><g id="setting_computer_information" data-name="setting computer information"><path class="cls-1" d="M47,9V33H1V9A2,2,0,0,1,3,7H45A2,2,0,0,1,47,9Z"/><path class="cls-2" d="M47,9V31H11a8,8,0,0,1-8-8V7H45A2,2,0,0,1,47,9Z"/><path class="cls-3" d="M38,13.64v2.72a2,2,0,0,1-1.61,2h0A2,2,0,0,0,35.1,21.4a2,2,0,0,1,.2,1.87c-.2.52-.43.66-2.36,2.59a2,2,0,0,1-2.53.25,2,2,0,0,0-3.08,1.26v0a2,2,0,0,1-2,1.61H22.64a2,2,0,0,1-2-1.61v0a2,2,0,0,0-3.08-1.26,2,2,0,0,1-2.53-.25l-1.92-1.92a2,2,0,0,1-.25-2.53,2,2,0,0,0-1.26-3.08h0a2,2,0,0,1-1.61-2V13.64a2,2,0,0,1,1.61-2h0A2,2,0,0,0,13.22,9.5a1.93,1.93,0,0,0-.33-.91,2,2,0,0,1,.25-2.53l1.92-1.92a2,2,0,0,1,2.53-.25,2,2,0,0,0,3.08-1.26v0a2,2,0,0,1,2-1.61h2.72a2,2,0,0,1,2,1.61v0A2,2,0,0,0,30.4,3.9a2,2,0,0,1,2.54.24l1.92,1.92a2,2,0,0,1,.25,2.53,2,2,0,0,0,1.26,3.08h0A2,2,0,0,1,38,13.64Z"/><path class="cls-4" d="M38,13.64v2.72a2,2,0,0,1-1.61,2h0A2,2,0,0,0,35.1,21.4a2,2,0,0,1,.2,1.87A14,14,0,0,1,15.73,3.7a2,2,0,0,1,1.86.19,2,2,0,0,0,3.08-1.26v0a2,2,0,0,1,2-1.61h2.72a2,2,0,0,1,2,1.61v0A2,2,0,0,0,30.4,3.9a2,2,0,0,1,2.54.24l1.92,1.92a2,2,0,0,1,.25,2.53,2,2,0,0,0,1.26,3.08h0A2,2,0,0,1,38,13.64Z"/><path class="cls-5" d="M32,15A8,8,0,1,1,19.44,8.44,8,8,0,0,1,32,15Z"/><path class="cls-6" d="M32,15a7.87,7.87,0,0,1-1.44,4.56A7.87,7.87,0,0,1,26,21,8,8,0,0,1,19.44,8.44,8,8,0,0,1,32,15Z"/><path class="cls-7" d="M23.29,11.71a1,1,0,1,0,1.09-1.63A1,1,0,0,0,23.29,11.71Z"/><path class="cls-7" d="M25,18V14a1,1,0,0,0-1-1H23a1,1,0,0,0,0,2v3a1,1,0,0,0,0,2h2A1,1,0,0,0,25,18Z"/><path class="cls-8" d="M47,33v2a2,2,0,0,1-2,2H3a2,2,0,0,1-2-2V33Z"/><path class="cls-9" d="M47,33v2H5a2,2,0,0,1-2-2Z"/><path class="cls-8" d="M29,43H19l1.33-6h7.34C28.74,41.81,28.45,40.48,29,43Z"/><path class="cls-9" d="M28.56,41H25.1a3.29,3.29,0,0,1-3.21-4h5.78Z"/><path class="cls-8" d="M32,45v2H16V45a2,2,0,0,1,2-2H30A2,2,0,0,1,32,45Z"/><path class="cls-9" d="M32,45H20a2,2,0,0,1-2-2c0-.1-.67,0,12,0A2,2,0,0,1,32,45Z"/></g></svg>